{
  "source": "C:\\Users\\Peter\\Desktop\\stuff\\MIUN\\quantitative_research\\video_compression\\videos\\HEVC_CLASS_B\\BasketballDrive_1920x1080_50.y4m",
  "output": "C:\\Users\\Peter\\Desktop\\stuff\\MIUN\\quantitative_research\\video_compression\\compressed_videos\\HEVC_CLASS_B\\h264\\12\\BasketballDrive_1920x1080_50_h264.mp4",
  "codec": "h264",
  "ok": "Input #0, yuv4mpegpipe, from 'C:\\Users\\Peter\\Desktop\\stuff\\MIUN\\quantitative_research\\video_compression\\videos\\HEVC_CLASS_B\\BasketballDrive_1920x1080_50.y4m':\n  Duration: 00:00:10.00, start: 0.000000, bitrate: 1244162 kb/s\n  Stream #0:0: Video: rawvideo (I420 / 0x30323449), yuv420p(progressive), 1920x1080, 50 fps, 50 tbr, 50 tbn\n[out#0/mp4 @ 0000019c9b1ca8c0] Codec AVOption b:a (set bitrate (in bits/s)) has not been used for any stream. The most likely reason is either wrong type (e.g. a video option with no video streams) or that it is a private option of some decoder which was not actually used for any stream.\nStream mapping:\n  Stream #0:0 -> #0:0 (rawvideo (native) -> h264 (libx264))\nPress [q] to stop, [?] for help\n[libx264 @ 0000019c9b1ccd40] using cpu capabilities: MMX2 SSE2Fast SSSE3 SSE4.2 AVX FMA3 BMI2 AVX2\n[libx264 @ 0000019c9b1ccd40] profile High, level 5.0, 4:2:0, 8-bit\n[libx264 @ 0000019c9b1ccd40] 264 - core 165 r3222 b35605a - H.264/MPEG-4 AVC codec - Copyleft 2003-2025 - http://www.videolan.org/x264.html - options: cabac=1 ref=5 deblock=1:0:0 analyse=0x3:0x113 me=hex subme=8 psy=1 psy_rd=1.00:0.00 mixed_ref=1 me_range=16 chroma_me=1 trellis=2 8x8dct=1 cqm=0 deadzone=21,11 fast_pskip=1 chroma_qp_offset=-2 threads=18 lookahead_threads=3 sliced_threads=0 nr=0 decimate=1 interlaced=0 bluray_compat=0 constrained_intra=0 bframes=3 b_pyramid=2 b_adapt=1 b_bias=0 direct=3 weightb=1 open_gop=0 weightp=2 keyint=250 keyint_min=25 scenecut=40 intra_refresh=0 rc_lookahead=50 rc=cbr mbtree=1 bitrate=12000 ratetol=1.0 qcomp=0.60 qpmin=0 qpmax=69 qpstep=4 vbv_maxrate=12000 vbv_bufsize=12000 nal_hrd=none filler=0 ip_ratio=1.40 aq=1:1.00\nOutput #0, mp4, to 'C:\\Users\\Peter\\Desktop\\stuff\\MIUN\\quantitative_research\\video_compression\\compressed_videos\\HEVC_CLASS_B\\h264\\12\\BasketballDrive_1920x1080_50_h264.mp4':\n  Metadata:\n    encoder         : Lavf62.3.100\n  Stream #0:0: Video: h264 (avc1 / 0x31637661), yuv420p(tv, progressive), 1920x1080, q=2-31, 12000 kb/s, 50 fps, 12800 tbn\n    Metadata:\n      encoder         : Lavc62.11.100 libx264\n    Side data:\n      cpb: bitrate max/min/avg: 12000000/0/12000000 buffer size: 12000000 vbv_delay: N/A\nframe=    0 fps=0.0 q=0.0 size=       0KiB time=N/A bitrate=N/A speed=N/A elapsed=0:00:00.52    \nframe=    0 fps=0.0 q=0.0 size=       0KiB time=N/A bitrate=N/A speed=N/A elapsed=0:00:01.04    \nframe=    0 fps=0.0 q=0.0 size=       0KiB time=N/A bitrate=N/A speed=N/A elapsed=0:00:01.57    \nframe=    0 fps=0.0 q=0.0 size=       0KiB time=N/A bitrate=N/A speed=N/A elapsed=0:00:02.09    \nframe=    0 fps=0.0 q=0.0 size=       0KiB time=N/A bitrate=N/A speed=N/A elapsed=0:00:02.75    \nframe=    0 fps=0.0 q=0.0 size=       0KiB time=N/A bitrate=N/A speed=N/A elapsed=0:00:03.45    \nframe=    5 fps=1.2 q=29.0 size=       0KiB time=00:00:00.04 bitrate=   9.6kbits/s speed=0.00979x elapsed=0:00:04.08    \nframe=    5 fps=1.0 q=29.0 size=       0KiB time=00:00:00.06 bitrate=   6.4kbits/s speed=0.0116x elapsed=0:00:05.16    \nframe=   20 fps=3.3 q=28.0 size=     512KiB time=00:00:00.14 bitrate=29962.1kbits/s speed=0.0229x elapsed=0:00:06.12    \nframe=   25 fps=3.6 q=28.0 size=     512KiB time=00:00:00.46 bitrate=9118.9kbits/s speed=0.0662x elapsed=0:00:06.94    \nframe=   27 fps=3.4 q=28.0 size=     512KiB time=00:00:00.50 bitrate=8389.4kbits/s speed=0.0624x elapsed=0:00:08.01    \nframe=   30 fps=3.5 q=28.0 size=     512KiB time=00:00:00.56 bitrate=7490.5kbits/s speed=0.0655x elapsed=0:00:08.55    \nframe=   33 fps=3.6 q=28.0 size=     768KiB time=00:00:00.62 bitrate=10148.1kbits/s speed=0.0684x elapsed=0:00:09.05    \nframe=   41 fps=4.3 q=28.0 size=     768KiB time=00:00:00.78 bitrate=8066.5kbits/s speed=0.0811x elapsed=0:00:09.61    \nframe=   43 fps=4.2 q=28.0 size=    1024KiB time=00:00:00.78 bitrate=10755.1kbits/s speed=0.077x elapsed=0:00:10.13    \nframe=   45 fps=4.2 q=28.0 size=    1024KiB time=00:00:00.86 bitrate=9754.6kbits/s speed=0.0802x elapsed=0:00:10.72    \nframe=   49 fps=4.4 q=28.0 size=    1280KiB time=00:00:00.94 bitrate=11155.5kbits/s speed=0.0836x elapsed=0:00:11.24    \nframe=   51 fps=4.3 q=28.0 size=    1280KiB time=00:00:00.98 bitrate=10700.1kbits/s speed=0.0832x elapsed=0:00:11.77    \nframe=   53 fps=4.3 q=29.0 size=    1280KiB time=00:00:01.02 bitrate=10280.5kbits/s speed=0.0829x elapsed=0:00:12.30    \nframe=   53 fps=4.1 q=29.0 size=    1280KiB time=00:00:01.02 bitrate=10280.5kbits/s speed=0.0794x elapsed=0:00:12.84    \nframe=   57 fps=4.3 q=29.0 size=    1536KiB time=00:00:01.10 bitrate=11439.4kbits/s speed=0.0822x elapsed=0:00:13.37    \nframe=   62 fps=4.5 q=29.0 size=    1536KiB time=00:00:01.18 bitrate=10663.8kbits/s speed=0.0848x elapsed=0:00:13.91    \nframe=   65 fps=4.5 q=29.0 size=    1792KiB time=00:00:01.26 bitrate=11651.1kbits/s speed=0.0873x elapsed=0:00:14.43    \nframe=   65 fps=4.3 q=29.0 size=    1792KiB time=00:00:01.26 bitrate=11651.1kbits/s speed=0.0842x elapsed=0:00:14.95    \nframe=   65 fps=4.2 q=29.0 size=    1792KiB time=00:00:01.26 bitrate=11651.1kbits/s speed=0.0814x elapsed=0:00:15.48    \nframe=   69 fps=4.3 q=29.0 size=    1792KiB time=00:00:01.34 bitrate=10955.6kbits/s speed=0.0836x elapsed=0:00:16.01    \nframe=   69 fps=4.2 q=29.0 size=    1792KiB time=00:00:01.34 bitrate=10955.6kbits/s speed=0.081x elapsed=0:00:16.54    \nframe=   73 fps=4.3 q=29.0 size=    2048KiB time=00:00:01.42 bitrate=11815.2kbits/s speed=0.0832x elapsed=0:00:17.07    \nframe=   78 fps=4.4 q=29.0 size=    2304KiB time=00:00:01.52 bitrate=12417.6kbits/s speed=0.0864x elapsed=0:00:17.58    \nframe=   81 fps=4.5 q=30.0 size=    2304KiB time=00:00:01.58 bitrate=11946.0kbits/s speed=0.0872x elapsed=0:00:18.12    \nframe=   82 fps=4.4 q=30.0 size=    2304KiB time=00:00:01.60 bitrate=11796.7kbits/s speed=0.0858x elapsed=0:00:18.65    \nframe=   85 fps=4.4 q=30.0 size=    2560KiB time=00:00:01.66 bitrate=12633.7kbits/s speed=0.0866x elapsed=0:00:19.16    \nframe=   85 fps=4.3 q=30.0 size=    2560KiB time=00:00:01.66 bitrate=12633.7kbits/s speed=0.0843x elapsed=0:00:19.69    \nframe=   85 fps=4.2 q=30.0 size=    2560KiB time=00:00:01.66 bitrate=12633.7kbits/s speed=0.0821x elapsed=0:00:20.21    \nframe=   85 fps=4.1 q=30.0 size=    2560KiB time=00:00:01.66 bitrate=12633.7kbits/s speed=0.0801x elapsed=0:00:20.73    \nframe=   89 fps=4.2 q=30.0 size=    2560KiB time=00:00:01.74 bitrate=12052.8kbits/s speed=0.0819x elapsed=0:00:21.24    \nframe=   91 fps=4.2 q=30.0 size=    2816KiB time=00:00:01.78 bitrate=12960.1kbits/s speed=0.0818x elapsed=0:00:21.75    \nframe=   97 fps=4.4 q=30.0 size=    2816KiB time=00:00:01.90 bitrate=12141.6kbits/s speed=0.0853x elapsed=0:00:22.28    \nframe=  105 fps=4.6 q=30.0 size=    3072KiB time=00:00:02.06 bitrate=12216.6kbits/s speed=0.0904x elapsed=0:00:22.79    \nframe=  107 fps=4.6 q=30.0 size=    3072KiB time=00:00:02.10 bitrate=11983.9kbits/s speed=0.0901x elapsed=0:00:23.31    \nframe=  110 fps=4.6 q=30.0 size=    3328KiB time=00:00:02.16 bitrate=12621.9kbits/s speed=0.0906x elapsed=0:00:23.83    \nframe=  110 fps=4.5 q=30.0 size=    3328KiB time=00:00:02.16 bitrate=12621.9kbits/s speed=0.0887x elapsed=0:00:24.35    \nframe=  117 fps=4.7 q=30.0 size=    3328KiB time=00:00:02.30 bitrate=11853.6kbits/s speed=0.0924x elapsed=0:00:24.88    \nframe=  117 fps=4.6 q=30.0 size=    3328KiB time=00:00:02.30 bitrate=11853.6kbits/s speed=0.0905x elapsed=0:00:25.40    \nframe=  117 fps=4.5 q=30.0 size=    3328KiB time=00:00:02.30 bitrate=11853.6kbits/s speed=0.0887x elapsed=0:00:25.91    \nframe=  117 fps=4.4 q=30.0 size=    3328KiB time=00:00:02.30 bitrate=11853.6kbits/s speed=0.087x elapsed=0:00:26.43    \nframe=  119 fps=4.4 q=30.0 size=    3584KiB time=00:00:02.34 bitrate=12547.2kbits/s speed=0.0868x elapsed=0:00:26.95    \nframe=  121 fps=4.4 q=30.0 size=    3584KiB time=00:00:02.38 bitrate=12336.3kbits/s speed=0.0866x elapsed=0:00:27.47    \nframe=  125 fps=4.5 q=29.0 size=    3584KiB time=00:00:02.46 bitrate=11935.2kbits/s speed=0.0879x elapsed=0:00:27.98    \nframe=  135 fps=4.7 q=29.0 size=    3840KiB time=00:00:02.66 bitrate=11826.2kbits/s speed=0.0933x elapsed=0:00:28.50    \nframe=  139 fps=4.8 q=29.0 size=    4096KiB time=00:00:02.74 bitrate=12246.3kbits/s speed=0.0944x elapsed=0:00:29.01    \nframe=  141 fps=4.8 q=29.0 size=    4096KiB time=00:00:02.78 bitrate=12070.1kbits/s speed=0.0942x elapsed=0:00:29.52    \nframe=  141 fps=4.7 q=29.0 size=    4096KiB time=00:00:02.78 bitrate=12070.1kbits/s speed=0.0925x elapsed=0:00:30.05    \nframe=  141 fps=4.6 q=29.0 size=    4096KiB time=00:00:02.78 bitrate=12070.1kbits/s speed=0.0909x elapsed=0:00:30.57    \nframe=  146 fps=4.7 q=29.0 size=    4096KiB time=00:00:02.88 bitrate=11651.0kbits/s speed=0.0926x elapsed=0:00:31.11    \nframe=  153 fps=4.8 q=29.0 size=    4352KiB time=00:00:03.02 bitrate=11805.3kbits/s speed=0.0955x elapsed=0:00:31.63    \nframe=  153 fps=4.8 q=29.0 size=    4352KiB time=00:00:03.02 bitrate=11805.3kbits/s speed=0.0939x elapsed=0:00:32.17    \nframe=  153 fps=4.7 q=29.0 size=    4352KiB time=00:00:03.02 bitrate=11805.3kbits/s speed=0.0923x elapsed=0:00:32.70    \nframe=  157 fps=4.7 q=30.0 size=    4608KiB time=00:00:03.10 bitrate=12177.1kbits/s speed=0.0933x elapsed=0:00:33.23    \nframe=  165 fps=4.9 q=30.0 size=    4608KiB time=00:00:03.24 bitrate=11651.0kbits/s speed=0.096x elapsed=0:00:33.75    \nframe=  173 fps=5.0 q=29.0 size=    4864KiB time=00:00:03.42 bitrate=11651.0kbits/s speed=0.0998x elapsed=0:00:34.26    \nframe=  174 fps=5.0 q=29.0 size=    4864KiB time=00:00:03.44 bitrate=11583.2kbits/s speed=0.0989x elapsed=0:00:34.78    \nframe=  177 fps=5.0 q=29.0 size=    5120KiB time=00:00:03.50 bitrate=11983.8kbits/s speed=0.0992x elapsed=0:00:35.29    \nframe=  177 fps=4.9 q=29.0 size=    5120KiB time=00:00:03.50 bitrate=11983.8kbits/s speed=0.0977x elapsed=0:00:35.80    \nframe=  177 fps=4.9 q=29.0 size=    5120KiB time=00:00:03.50 bitrate=11983.8kbits/s speed=0.0963x elapsed=0:00:36.32    \nframe=  177 fps=4.8 q=29.0 size=    5120KiB time=00:00:03.50 bitrate=11983.8kbits/s speed=0.095x elapsed=0:00:36.83    \nframe=  180 fps=4.8 q=29.0 size=    5120KiB time=00:00:03.56 bitrate=11781.9kbits/s speed=0.0953x elapsed=0:00:37.35    \nframe=  188 fps=5.0 q=29.0 size=    5376KiB time=00:00:03.72 bitrate=11838.9kbits/s speed=0.0982x elapsed=0:00:37.87    \nframe=  190 fps=4.9 q=30.0 size=    5376KiB time=00:00:03.76 bitrate=11712.9kbits/s speed=0.0979x elapsed=0:00:38.39    \nframe=  195 fps=5.0 q=29.0 size=    5632KiB time=00:00:03.86 bitrate=11952.8kbits/s speed=0.0992x elapsed=0:00:38.90    \nframe=  198 fps=5.0 q=29.0 size=    5632KiB time=00:00:03.92 bitrate=11769.8kbits/s speed=0.0994x elapsed=0:00:39.42    \nframe=  201 fps=5.0 q=29.0 size=    5632KiB time=00:00:03.98 bitrate=11592.4kbits/s speed=0.0997x elapsed=0:00:39.93    \nframe=  201 fps=5.0 q=29.0 size=    5632KiB time=00:00:03.98 bitrate=11592.4kbits/s speed=0.0984x elapsed=0:00:40.45    \nframe=  201 fps=4.9 q=29.0 size=    5632KiB time=00:00:03.98 bitrate=11592.4kbits/s speed=0.0971x elapsed=0:00:40.97    \nframe=  206 fps=5.0 q=29.0 size=    5888KiB time=00:00:04.08 bitrate=11822.3kbits/s speed=0.0983x elapsed=0:00:41.50    \nframe=  213 fps=5.1 q=29.0 size=    5888KiB time=00:00:04.22 bitrate=11430.1kbits/s speed= 0.1x elapsed=0:00:42.03    \nframe=  213 fps=5.0 q=29.0 size=    5888KiB time=00:00:04.22 bitrate=11430.1kbits/s speed=0.0991x elapsed=0:00:42.56    \nframe=  213 fps=4.9 q=29.0 size=    5888KiB time=00:00:04.22 bitrate=11430.1kbits/s speed=0.098x elapsed=0:00:43.07    \nframe=  220 fps=5.0 q=29.0 size=    6144KiB time=00:00:04.36 bitrate=11544.0kbits/s speed= 0.1x elapsed=0:00:43.60    \nframe=  221 fps=5.0 q=29.0 size=    6144KiB time=00:00:04.38 bitrate=11491.3kbits/s speed=0.0992x elapsed=0:00:44.13    \nframe=  225 fps=5.0 q=29.0 size=    6400KiB time=00:00:04.46 bitrate=11755.4kbits/s speed=0.0999x elapsed=0:00:44.65    \nframe=  225 fps=5.0 q=29.0 size=    6400KiB time=00:00:04.46 bitrate=11755.4kbits/s speed=0.0987x elapsed=0:00:45.18    \nframe=  225 fps=4.9 q=29.0 size=    6400KiB time=00:00:04.46 bitrate=11755.4kbits/s speed=0.0975x elapsed=0:00:45.72    \nframe=  233 fps=5.0 q=28.0 size=    6400KiB time=00:00:04.62 bitrate=11348.3kbits/s speed=0.0999x elapsed=0:00:46.25    \nframe=  233 fps=5.0 q=28.0 size=    6400KiB time=00:00:04.62 bitrate=11348.3kbits/s speed=0.0988x elapsed=0:00:46.77    \nframe=  233 fps=4.9 q=28.0 size=    6400KiB time=00:00:04.62 bitrate=11348.3kbits/s speed=0.0977x elapsed=0:00:47.30    \nframe=  242 fps=5.1 q=28.0 size=    6656KiB time=00:00:04.80 bitrate=11359.7kbits/s speed= 0.1x elapsed=0:00:47.82    \nframe=  245 fps=5.1 q=28.0 size=    6912KiB time=00:00:04.86 bitrate=11650.9kbits/s speed=0.101x elapsed=0:00:48.35    \nframe=  245 fps=5.0 q=28.0 size=    6912KiB time=00:00:04.86 bitrate=11650.9kbits/s speed=0.0994x elapsed=0:00:48.87    \nframe=  245 fps=5.0 q=28.0 size=    6912KiB time=00:00:04.86 bitrate=11650.9kbits/s speed=0.0984x elapsed=0:00:49.40    \nframe=  245 fps=4.9 q=28.0 size=    6912KiB time=00:00:04.86 bitrate=11650.9kbits/s speed=0.0973x elapsed=0:00:49.92    \nframe=  246 fps=4.9 q=28.0 size=    6912KiB time=00:00:04.88 bitrate=11603.2kbits/s speed=0.0967x elapsed=0:00:50.44    \nframe=  254 fps=5.0 q=28.0 size=    7168KiB time=00:00:05.04 bitrate=11650.9kbits/s speed=0.0988x elapsed=0:00:50.98    \nframe=  259 fps=5.0 q=29.0 size=    7424KiB time=00:00:05.14 bitrate=11832.3kbits/s speed=0.0998x elapsed=0:00:51.51    \nframe=  259 fps=5.0 q=29.0 size=    7424KiB time=00:00:05.14 bitrate=11832.3kbits/s speed=0.0988x elapsed=0:00:52.04    \nframe=  263 fps=5.0 q=29.0 size=    7424KiB time=00:00:05.22 bitrate=11650.9kbits/s speed=0.0993x elapsed=0:00:52.55    \nframe=  263 fps=5.0 q=29.0 size=    7424KiB time=00:00:05.22 bitrate=11650.9kbits/s speed=0.0984x elapsed=0:00:53.07    \nframe=  263 fps=4.9 q=29.0 size=    7424KiB time=00:00:05.22 bitrate=11650.9kbits/s speed=0.0974x elapsed=0:00:53.59    \nframe=  263 fps=4.9 q=29.0 size=    7424KiB time=00:00:05.22 bitrate=11650.9kbits/s speed=0.0965x elapsed=0:00:54.11    \nframe=  263 fps=4.8 q=29.0 size=    7424KiB time=00:00:05.22 bitrate=11650.9kbits/s speed=0.0956x elapsed=0:00:54.62    \nframe=  267 fps=4.8 q=29.0 size=    7680KiB time=00:00:05.30 bitrate=11870.7kbits/s speed=0.0961x elapsed=0:00:55.15    \nframe=  275 fps=4.9 q=28.0 size=    7680KiB time=00:00:05.44 bitrate=11565.2kbits/s speed=0.0977x elapsed=0:00:55.69    \nframe=  280 fps=5.0 q=28.0 size=    7936KiB time=00:00:05.56 bitrate=11692.8kbits/s speed=0.0989x elapsed=0:00:56.21    \nframe=  283 fps=5.0 q=29.0 size=    7936KiB time=00:00:05.62 bitrate=11568.0kbits/s speed=0.0991x elapsed=0:00:56.73    \nframe=  287 fps=5.0 q=29.0 size=    7936KiB time=00:00:05.70 bitrate=11405.6kbits/s speed=0.0995x elapsed=0:00:57.26    \nframe=  290 fps=5.0 q=29.0 size=    8192KiB time=00:00:05.74 bitrate=11691.5kbits/s speed=0.0993x elapsed=0:00:57.78    \nframe=  295 fps=5.1 q=28.0 size=    8192KiB time=00:00:05.86 bitrate=11452.1kbits/s speed=0.101x elapsed=0:00:58.30    \nframe=  295 fps=5.0 q=28.0 size=    8192KiB time=00:00:05.86 bitrate=11452.1kbits/s speed=0.0996x elapsed=0:00:58.82    \nframe=  295 fps=5.0 q=28.0 size=    8192KiB time=00:00:05.86 bitrate=11452.1kbits/s speed=0.0988x elapsed=0:00:59.34    \nframe=  295 fps=4.9 q=28.0 size=    8192KiB time=00:00:05.86 bitrate=11452.1kbits/s speed=0.0979x elapsed=0:00:59.85    \nframe=  299 fps=5.0 q=29.0 size=    8448KiB time=00:00:05.94 bitrate=11650.9kbits/s speed=0.0984x elapsed=0:01:00.37    \nframe=  303 fps=5.0 q=29.0 size=    8448KiB time=00:00:06.02 bitrate=11496.1kbits/s speed=0.0989x elapsed=0:01:00.89    \nframe=  307 fps=5.0 q=29.0 size=    8704KiB time=00:00:06.10 bitrate=11689.1kbits/s speed=0.0993x elapsed=0:01:01.40    \nframe=  311 fps=5.0 q=29.0 size=    8704KiB time=00:00:06.18 bitrate=11537.8kbits/s speed=0.0998x elapsed=0:01:01.93    \nframe=  314 fps=5.0 q=29.0 size=    8960KiB time=00:00:06.22 bitrate=11800.8kbits/s speed=0.0996x elapsed=0:01:02.45    \nframe=  320 fps=5.1 q=28.0 size=    8960KiB time=00:00:06.36 bitrate=11541.0kbits/s speed=0.101x elapsed=0:01:02.98    \nframe=  324 fps=5.1 q=28.0 size=    9216KiB time=00:00:06.44 bitrate=11723.3kbits/s speed=0.101x elapsed=0:01:03.51    \nframe=  330 fps=5.2 q=28.0 size=    9216KiB time=00:00:06.56 bitrate=11508.8kbits/s speed=0.102x elapsed=0:01:04.04    \nframe=  331 fps=5.1 q=28.0 size=    9216KiB time=00:00:06.58 bitrate=11473.8kbits/s speed=0.102x elapsed=0:01:04.56    \nframe=  331 fps=5.1 q=28.0 size=    9216KiB time=00:00:06.58 bitrate=11473.8kbits/s speed=0.101x elapsed=0:01:05.07    \nframe=  331 fps=5.0 q=28.0 size=    9216KiB time=00:00:06.58 bitrate=11473.8kbits/s speed= 0.1x elapsed=0:01:05.60    \nframe=  331 fps=5.0 q=28.0 size=    9216KiB time=00:00:06.58 bitrate=11473.8kbits/s speed=0.0995x elapsed=0:01:06.12    \nframe=  331 fps=5.0 q=28.0 size=    9216KiB time=00:00:06.58 bitrate=11473.8kbits/s speed=0.0987x elapsed=0:01:06.63    \nframe=  335 fps=5.0 q=28.0 size=    9472KiB time=00:00:06.66 bitrate=11650.9kbits/s speed=0.0992x elapsed=0:01:07.15    \nframe=  335 fps=4.9 q=28.0 size=    9472KiB time=00:00:06.66 bitrate=11650.9kbits/s speed=0.0984x elapsed=0:01:07.67    \nframe=  340 fps=5.0 q=28.0 size=    9472KiB time=00:00:06.76 bitrate=11478.6kbits/s speed=0.0991x elapsed=0:01:08.20    \nframe=  347 fps=5.0 q=27.0 size=    9728KiB time=00:00:06.90 bitrate=11549.6kbits/s speed= 0.1x elapsed=0:01:08.74    \nframe=  348 fps=5.0 q=28.0 size=    9728KiB time=00:00:06.92 bitrate=11516.2kbits/s speed=0.0999x elapsed=0:01:09.27    \nframe=  352 fps=5.0 q=27.0 size=    9728KiB time=00:00:07.00 bitrate=11384.6kbits/s speed= 0.1x elapsed=0:01:09.79    \nframe=  356 fps=5.1 q=27.0 size=    9984KiB time=00:00:07.08 bitrate=11552.2kbits/s speed=0.101x elapsed=0:01:10.31    \nframe=  363 fps=5.1 q=28.0 size=   10240KiB time=00:00:07.22 bitrate=11618.6kbits/s speed=0.102x elapsed=0:01:10.82    \nframe=  366 fps=5.1 q=28.0 size=   10240KiB time=00:00:07.26 bitrate=11554.6kbits/s speed=0.102x elapsed=0:01:11.33    \nframe=  367 fps=5.1 q=28.0 size=   10240KiB time=00:00:07.30 bitrate=11491.3kbits/s speed=0.102x elapsed=0:01:11.87    \nframe=  367 fps=5.1 q=28.0 size=   10240KiB time=00:00:07.30 bitrate=11491.3kbits/s speed=0.101x elapsed=0:01:12.40    \nframe=  371 fps=5.1 q=28.0 size=   10240KiB time=00:00:07.34 bitrate=11428.7kbits/s speed=0.101x elapsed=0:01:12.93    \nframe=  375 fps=5.1 q=29.0 size=   10496KiB time=00:00:07.46 bitrate=11526.0kbits/s speed=0.102x elapsed=0:01:13.46    \nframe=  387 fps=5.2 q=28.0 size=   10752KiB time=00:00:07.62 bitrate=11559.2kbits/s speed=0.103x elapsed=0:01:14.00    \nframe=  391 fps=5.2 q=28.0 size=   10752KiB time=00:00:07.78 bitrate=11321.4kbits/s speed=0.104x elapsed=0:01:14.60    \nframe=  399 fps=5.3 q=28.0 size=   11008KiB time=00:00:07.94 bitrate=11357.4kbits/s speed=0.106x elapsed=0:01:15.20    \nframe=  407 fps=5.4 q=29.0 size=   11264KiB time=00:00:08.10 bitrate=11392.0kbits/s speed=0.107x elapsed=0:01:15.74    \nframe=  408 fps=5.3 q=29.0 size=   11264KiB time=00:00:08.12 bitrate=11363.9kbits/s speed=0.106x elapsed=0:01:16.38    \nframe=  408 fps=5.3 q=29.0 size=   11264KiB time=00:00:08.12 bitrate=11363.9kbits/s speed=0.105x elapsed=0:01:17.00    \nframe=  419 fps=5.4 q=29.0 size=   11520KiB time=00:00:08.32 bitrate=11342.8kbits/s speed=0.107x elapsed=0:01:17.55    \nframe=  426 fps=5.4 q=29.0 size=   11776KiB time=00:00:08.48 bitrate=11376.1kbits/s speed=0.108x elapsed=0:01:18.19    \nframe=  426 fps=5.4 q=29.0 size=   11776KiB time=00:00:08.48 bitrate=11376.1kbits/s speed=0.108x elapsed=0:01:18.73    \nframe=  428 fps=5.4 q=29.0 size=   11776KiB time=00:00:08.52 bitrate=11322.7kbits/s speed=0.107x elapsed=0:01:19.27    \nframe=  428 fps=5.4 q=29.0 size=   11776KiB time=00:00:08.52 bitrate=11322.7kbits/s speed=0.107x elapsed=0:01:19.80    \nframe=  443 fps=5.5 q=29.0 size=   12288KiB time=00:00:08.82 bitrate=11413.1kbits/s speed=0.11x elapsed=0:01:20.33    \nframe=  443 fps=5.5 q=29.0 size=   12288KiB time=00:00:08.82 bitrate=11413.1kbits/s speed=0.109x elapsed=0:01:20.88    \nframe=  446 fps=5.5 q=29.0 size=   12544KiB time=00:00:08.88 bitrate=11572.2kbits/s speed=0.109x elapsed=0:01:21.45    \nframe=  447 fps=5.5 q=29.0 size=   12544KiB time=00:00:08.90 bitrate=11546.2kbits/s speed=0.109x elapsed=0:01:21.98    \nframe=  447 fps=5.4 q=29.0 size=   12544KiB time=00:00:08.90 bitrate=11546.2kbits/s speed=0.108x elapsed=0:01:22.50    \nframe=  451 fps=5.4 q=29.0 size=   12800KiB time=00:00:08.98 bitrate=11676.8kbits/s speed=0.108x elapsed=0:01:23.09    \nframe=  459 fps=5.5 q=29.0 size=   13056KiB time=00:00:09.14 bitrate=11701.9kbits/s speed=0.109x elapsed=0:01:23.82    \nframe=  467 fps=5.5 q=29.0 size=   13312KiB time=00:00:09.30 bitrate=11726.1kbits/s speed=0.11x elapsed=0:01:24.34    \nframe=  471 fps=5.6 q=29.0 size=   13312KiB time=00:00:09.38 bitrate=11626.0kbits/s speed=0.111x elapsed=0:01:24.85    \nframe=  479 fps=5.6 q=29.0 size=   13568KiB time=00:00:09.54 bitrate=11650.9kbits/s speed=0.112x elapsed=0:01:25.37    \nframe=  479 fps=5.6 q=29.0 size=   13568KiB time=00:00:09.54 bitrate=11650.9kbits/s speed=0.111x elapsed=0:01:25.89    \nframe=  483 fps=5.6 q=29.0 size=   13824KiB time=00:00:09.62 bitrate=11772.0kbits/s speed=0.111x elapsed=0:01:26.40    \nframe=  483 fps=5.6 q=29.0 size=   13824KiB time=00:00:09.62 bitrate=11772.0kbits/s speed=0.111x elapsed=0:01:26.91    \nframe=  491 fps=5.6 q=-1.0 size=   14080KiB time=00:00:09.78 bitrate=11793.8kbits/s speed=0.112x elapsed=0:01:27.44    \nframe=  491 fps=5.6 q=-1.0 size=   14080KiB time=00:00:09.78 bitrate=11793.8kbits/s speed=0.111x elapsed=0:01:27.94    \nframe=  497 fps=5.6 q=-1.0 size=   14080KiB time=00:00:09.90 bitrate=11650.9kbits/s speed=0.112x elapsed=0:01:28.46    \n[mp4 @ 0000019c9b1cba00] Starting second pass: moving the moov atom to the beginning of the file\n[out#0/mp4 @ 0000019c9b1ca8c0] video:14351KiB audio:0KiB subtitle:0KiB other streams:0KiB global headers:0KiB muxing overhead: 0.048091%\nframe=  500 fps=5.6 q=-1.0 Lsize=   14358KiB time=00:00:09.96 bitrate=11808.9kbits/s speed=0.112x elapsed=0:01:28.60    \n[libx264 @ 0000019c9b1ccd40] frame I:2     Avg QP:23.63  size:171148\n[libx264 @ 0000019c9b1ccd40] frame P:126   Avg QP:26.50  size: 62167\n[libx264 @ 0000019c9b1ccd40] frame B:372   Avg QP:29.64  size: 17524\n[libx264 @ 0000019c9b1ccd40] consecutive B-frames:  0.8%  0.0%  0.0% 99.2%\n[libx264 @ 0000019c9b1ccd40] mb I  I16..4:  7.6% 77.6% 14.8%\n[libx264 @ 0000019c9b1ccd40] mb P  I16..4:  1.2% 10.1%  2.2%  P16..4: 50.0% 14.5%  7.4%  0.0%  0.0%    skip:14.8%\n[libx264 @ 0000019c9b1ccd40] mb B  I16..4:  0.1%  0.9%  0.2%  B16..8: 48.6%  5.7%  1.4%  direct: 2.2%  skip:41.0%  L0:42.3% L1:51.4% BI: 6.2%\n[libx264 @ 0000019c9b1ccd40] 8x8 transform intra:76.2% inter:76.8%\n[libx264 @ 0000019c9b1ccd40] direct mvs  spatial:97.3% temporal:2.7%\n[libx264 @ 0000019c9b1ccd40] coded y,uvDC,uvAC intra: 83.8% 73.4% 42.3% inter: 16.4% 13.7% 1.5%\n[libx264 @ 0000019c9b1ccd40] i16 v,h,dc,p: 41% 24%  1% 34%\n[libx264 @ 0000019c9b1ccd40] i8 v,h,dc,ddl,ddr,vr,hd,vl,hu: 11%  8%  3% 10% 16% 15% 16% 11% 10%\n[libx264 @ 0000019c9b1ccd40] i4 v,h,dc,ddl,ddr,vr,hd,vl,hu: 12%  9%  3%  9% 17% 16% 14% 11% 10%\n[libx264 @ 0000019c9b1ccd40] i8c dc,h,v,p: 31% 24% 25% 20%\n[libx264 @ 0000019c9b1ccd40] Weighted P-Frames: Y:0.0% UV:0.0%\n[libx264 @ 0000019c9b1ccd40] ref P L0: 56.1% 23.4% 12.4%  4.4%  3.8%\n[libx264 @ 0000019c9b1ccd40] ref B L0: 90.4%  7.0%  2.1%  0.6%\n[libx264 @ 0000019c9b1ccd40] ref B L1: 96.2%  3.8%\n[libx264 @ 0000019c9b1ccd40] kb/s:11755.42\n",
  "seconds": 89.74910759925842,
  "probe_out": {}
}